<?xml version="1.0" encoding="UTF-8" standalone="no"?>
<!-- Created with Inkscape (http://www.inkscape.org/) -->

<svg
   xmlns:dc="http://purl.org/dc/elements/1.1/"
   xmlns:cc="http://creativecommons.org/ns#"
   xmlns:rdf="http://www.w3.org/1999/02/22-rdf-syntax-ns#"
   xmlns:svg="http://www.w3.org/2000/svg"
   xmlns="http://www.w3.org/2000/svg"
   xmlns:sodipodi="http://sodipodi.sourceforge.net/DTD/sodipodi-0.dtd"
   xmlns:inkscape="http://www.inkscape.org/namespaces/inkscape"
   width="51.754566mm"
   height="51.754566mm"
   viewBox="0 0 183.38232 183.38232"
   id="svg2"
   version="1.1"
   inkscape:version="0.91 r13725"
   sodipodi:docname="icon.plain.svg"
   inkscape:export-filename="E:\Dev\_dns.rip\docs\icon\256.png"
   inkscape:export-xdpi="90"
   inkscape:export-ydpi="90">
  <defs
     id="defs4" />
  <sodipodi:namedview
     id="base"
     pagecolor="#ffffff"
     bordercolor="#666666"
     borderopacity="1.0"
     inkscape:pageopacity="0.0"
     inkscape:pageshadow="2"
     inkscape:zoom="1.979899"
     inkscape:cx="44.2868"
     inkscape:cy="76.624672"
     inkscape:document-units="px"
     inkscape:current-layer="g3348"
     showgrid="false"
     inkscape:window-width="1680"
     inkscape:window-height="997"
     inkscape:window-x="-8"
     inkscape:window-y="-8"
     inkscape:window-maximized="1"
     fit-margin-top="0"
     fit-margin-left="0"
     fit-margin-right="0"
     fit-margin-bottom="0" />
  <metadata
     id="metadata7">
    <rdf:RDF>
      <cc:Work
         rdf:about="">
        <dc:format>image/svg+xml</dc:format>
        <dc:type
           rdf:resource="http://purl.org/dc/dcmitype/StillImage" />
        <dc:title></dc:title>
      </cc:Work>
    </rdf:RDF>
  </metadata>
  <g
     inkscape:groupmode="layer"
     id="layer2"
     inkscape:label="Layer 2"
     style="display:inline"
     transform="translate(-196.29278,-372.63946)">
    <g
       style="fill:#000000"
       id="g3348"
       transform="matrix(10.187906,0,0,10.187906,162.91432,345.90065)">
      <path
         id="path3340"
         d="m 20.276282,12.624564 -15.9999997,0 c -0.55,0 -1,0.45 -1,1.000001 l 0,5.999999 c 0,0.55 0.45,1.000001 1,1.000001 l 15.9999997,0 c 0.55,0 1.000001,-0.450001 1.000001,-1.000001 l 0,-5.999999 c 0,-0.550001 -0.450001,-1.000001 -1.000001,-1.000001 z M 7.2762824,18.624565 c -1.1000001,0 -2,-0.900001 -2,-2.000001 0,-1.099999 0.8999999,-2 2,-2 1.1,0 2,0.900001 2,2 0,1.1 -0.9,2.000001 -2,2.000001 z M 20.276282,2.624564 l -15.9999997,0 c -0.55,0 -1,0.45 -1,1 l 0,6 c 0,0.55 0.45,1 1,1 l 15.9999997,0 c 0.55,0 1.000001,-0.45 1.000001,-1 l 0,-6 c 0,-0.55 -0.450001,-1 -1.000001,-1 z m -12.9999996,6 c -1.1000001,0 -2,-0.9 -2,-2 0,-1.1 0.8999999,-2 2,-2 1.1,0 2,0.9 2,2 0,1.1 -0.9,2 -2,2 z"
         inkscape:connector-curvature="0"
         style="display:inline;fill:#ff6d00;fill-opacity:1" />
    </g>
  </g>
</svg>