<?xml version="1.0" standalone="no"?>
<!DOCTYPE svg PUBLIC "-//W3C//DTD SVG 20010904//EN"
 "http://www.w3.org/TR/2001/REC-SVG-20010904/DTD/svg10.dtd">
<svg version="1.0" xmlns="http://www.w3.org/2000/svg"
 width="260.000000pt" height="260.000000pt" viewBox="0 0 260.000000 260.000000"
 preserveAspectRatio="xMidYMid meet">
<metadata>
Created by potrace 1.11, written by Peter Selinger 2001-2013
</metadata>
<g transform="translate(0.000000,260.000000) scale(0.100000,-0.100000)"
fill="#000000" stroke="none">
<path d="M0 1300 l0 -1300 1300 0 1300 0 0 1300 0 1300 -1300 0 -1300 0 0
-1300z m2175 918 c53 -24 55 -38 55 -405 0 -375 1 -371 -66 -399 -50 -21
-1678 -21 -1728 0 -67 28 -66 23 -66 401 1 363 2 374 51 401 33 18 1714 20
1754 2z m-11 -1032 c67 -28 66 -24 66 -399 0 -367 -2 -381 -55 -405 -37 -17
-1713 -17 -1750 0 -53 24 -55 38 -55 405 0 374 0 371 64 399 47 20 1681 20
1730 0z" />
<path d="M695 2004 c-82 -45 -119 -109 -113 -200 5 -83 40 -137 111 -170 29
-13 69 -24 90 -24 107 0 206 98 207 205 0 61 -41 139 -91 172 -52 35 -156 43
-204 17z" />
<path d="M715 978 c-82 -29 -135 -105 -135 -197 0 -122 92 -207 215 -199 84 5
138 40 171 111 28 62 30 118 5 172 -46 99 -156 148 -256 113z" />
</g>
</svg>